<mxfile host="app.diagrams.net" modified="2024-06-11T08:36:54.003Z" agent="Mozilla/5.0 (Windows NT 10.0; Win64; x64) AppleWebKit/537.36 (KHTML, like Gecko) Chrome/125.0.0.0 Safari/537.36" etag="ZadFSFBL6NQ6Avo6mi_k" version="24.5.2" type="device">
  <diagram name="Page-1" id="UvGsvI7WDLGOxSDZg6XE">
    <mxGraphModel dx="1509" dy="1913" grid="1" gridSize="10" guides="1" tooltips="1" connect="1" arrows="1" fold="1" page="1" pageScale="1" pageWidth="850" pageHeight="1100" math="0" shadow="0">
      <root>
        <mxCell id="0" />
        <mxCell id="1" parent="0" />
        <mxCell id="ry9LyBkneQpmExAJehDU-2" value="" style="rounded=1;whiteSpace=wrap;html=1;fillColor=#f8cecc;strokeColor=#b85450;" vertex="1" parent="1">
          <mxGeometry x="290" y="-10" width="500" height="720" as="geometry" />
        </mxCell>
        <mxCell id="ry9LyBkneQpmExAJehDU-43" value="" style="edgeStyle=orthogonalEdgeStyle;rounded=0;orthogonalLoop=1;jettySize=auto;html=1;" edge="1" parent="1" source="ry9LyBkneQpmExAJehDU-4" target="ry9LyBkneQpmExAJehDU-40">
          <mxGeometry relative="1" as="geometry" />
        </mxCell>
        <mxCell id="ry9LyBkneQpmExAJehDU-4" value="Start" style="ellipse;whiteSpace=wrap;html=1;" vertex="1" parent="1">
          <mxGeometry x="443.5" y="40" width="93" height="60" as="geometry" />
        </mxCell>
        <mxCell id="ry9LyBkneQpmExAJehDU-7" value="&lt;font style=&quot;font-size: 43px;&quot;&gt;void WifiSetup()&lt;/font&gt;" style="text;html=1;align=center;verticalAlign=middle;whiteSpace=wrap;rounded=0;rotation=-90;" vertex="1" parent="1">
          <mxGeometry x="110" y="310" width="450" height="80" as="geometry" />
        </mxCell>
        <mxCell id="ry9LyBkneQpmExAJehDU-59" value="" style="edgeStyle=orthogonalEdgeStyle;rounded=0;orthogonalLoop=1;jettySize=auto;html=1;" edge="1" parent="1" source="ry9LyBkneQpmExAJehDU-40" target="ry9LyBkneQpmExAJehDU-46">
          <mxGeometry relative="1" as="geometry" />
        </mxCell>
        <mxCell id="ry9LyBkneQpmExAJehDU-40" value="&lt;div style=&quot;line-height: 19px; white-space: pre;&quot;&gt;&lt;div style=&quot;line-height: 19px;&quot;&gt;&amp;nbsp; WiFi.begin(ssid, password);&lt;/div&gt;&lt;div style=&quot;line-height: 19px;&quot;&gt;(Wifi.h funtion)&lt;/div&gt;&lt;/div&gt;" style="shape=process;whiteSpace=wrap;html=1;backgroundOutline=1;" vertex="1" parent="1">
          <mxGeometry x="385" y="130" width="210" height="60" as="geometry" />
        </mxCell>
        <mxCell id="ry9LyBkneQpmExAJehDU-42" value="End" style="ellipse;whiteSpace=wrap;html=1;" vertex="1" parent="1">
          <mxGeometry x="443" y="612" width="93" height="60" as="geometry" />
        </mxCell>
        <mxCell id="ry9LyBkneQpmExAJehDU-58" value="" style="edgeStyle=orthogonalEdgeStyle;rounded=0;orthogonalLoop=1;jettySize=auto;html=1;" edge="1" parent="1" source="ry9LyBkneQpmExAJehDU-46" target="ry9LyBkneQpmExAJehDU-47">
          <mxGeometry relative="1" as="geometry" />
        </mxCell>
        <mxCell id="ry9LyBkneQpmExAJehDU-46" value="&lt;div style=&quot;line-height: 19px; white-space: pre;&quot;&gt;&lt;span style=&quot;background-color: initial;&quot;&gt;Serial.print(&quot;Connecting to: &quot;);&lt;/span&gt;&lt;br&gt;&lt;/div&gt;&lt;div style=&quot;line-height: 19px; white-space: pre;&quot;&gt;Serial.print(ssid);&lt;/div&gt;" style="rounded=0;whiteSpace=wrap;html=1;" vertex="1" parent="1">
          <mxGeometry x="402.5" y="234" width="175" height="60" as="geometry" />
        </mxCell>
        <mxCell id="ry9LyBkneQpmExAJehDU-55" style="edgeStyle=orthogonalEdgeStyle;rounded=0;orthogonalLoop=1;jettySize=auto;html=1;entryX=0.5;entryY=0;entryDx=0;entryDy=0;" edge="1" parent="1" source="ry9LyBkneQpmExAJehDU-47" target="ry9LyBkneQpmExAJehDU-53">
          <mxGeometry relative="1" as="geometry" />
        </mxCell>
        <mxCell id="ry9LyBkneQpmExAJehDU-64" value="" style="edgeStyle=orthogonalEdgeStyle;rounded=0;orthogonalLoop=1;jettySize=auto;html=1;" edge="1" parent="1" source="ry9LyBkneQpmExAJehDU-47" target="ry9LyBkneQpmExAJehDU-63">
          <mxGeometry relative="1" as="geometry" />
        </mxCell>
        <mxCell id="ry9LyBkneQpmExAJehDU-47" value="While&lt;div&gt;(Not connected)&lt;/div&gt;" style="rhombus;whiteSpace=wrap;html=1;" vertex="1" parent="1">
          <mxGeometry x="430.5" y="330" width="119" height="120" as="geometry" />
        </mxCell>
        <mxCell id="ry9LyBkneQpmExAJehDU-56" value="" style="edgeStyle=orthogonalEdgeStyle;rounded=0;orthogonalLoop=1;jettySize=auto;html=1;" edge="1" parent="1" source="ry9LyBkneQpmExAJehDU-53" target="ry9LyBkneQpmExAJehDU-54">
          <mxGeometry relative="1" as="geometry" />
        </mxCell>
        <mxCell id="ry9LyBkneQpmExAJehDU-53" value="&lt;div style=&quot;line-height: 19px; white-space: pre;&quot;&gt;&lt;span style=&quot;background-color: initial;&quot;&gt;Serial.print(&quot;.&quot;);&lt;/span&gt;&lt;/div&gt;" style="rounded=0;whiteSpace=wrap;html=1;" vertex="1" parent="1">
          <mxGeometry x="620" y="430" width="120" height="40" as="geometry" />
        </mxCell>
        <mxCell id="ry9LyBkneQpmExAJehDU-57" style="edgeStyle=orthogonalEdgeStyle;rounded=0;orthogonalLoop=1;jettySize=auto;html=1;entryX=0.5;entryY=0;entryDx=0;entryDy=0;exitX=1;exitY=0.5;exitDx=0;exitDy=0;" edge="1" parent="1" source="ry9LyBkneQpmExAJehDU-54" target="ry9LyBkneQpmExAJehDU-47">
          <mxGeometry relative="1" as="geometry">
            <Array as="points">
              <mxPoint x="760" y="520" />
              <mxPoint x="760" y="310" />
              <mxPoint x="490" y="310" />
            </Array>
          </mxGeometry>
        </mxCell>
        <mxCell id="ry9LyBkneQpmExAJehDU-54" value="Delay(500)" style="shape=parallelogram;perimeter=parallelogramPerimeter;whiteSpace=wrap;html=1;fixedSize=1;" vertex="1" parent="1">
          <mxGeometry x="620" y="500" width="120" height="40" as="geometry" />
        </mxCell>
        <mxCell id="ry9LyBkneQpmExAJehDU-61" value="No" style="text;html=1;strokeColor=none;fillColor=none;align=center;verticalAlign=middle;whiteSpace=wrap;rounded=0;" vertex="1" parent="1">
          <mxGeometry x="535" y="370" width="60" height="30" as="geometry" />
        </mxCell>
        <mxCell id="ry9LyBkneQpmExAJehDU-62" value="Yes" style="text;html=1;strokeColor=none;fillColor=none;align=center;verticalAlign=middle;whiteSpace=wrap;rounded=0;" vertex="1" parent="1">
          <mxGeometry x="443.5" y="450" width="60" height="30" as="geometry" />
        </mxCell>
        <mxCell id="ry9LyBkneQpmExAJehDU-66" value="" style="edgeStyle=orthogonalEdgeStyle;rounded=0;orthogonalLoop=1;jettySize=auto;html=1;" edge="1" parent="1" source="ry9LyBkneQpmExAJehDU-63" target="ry9LyBkneQpmExAJehDU-42">
          <mxGeometry relative="1" as="geometry" />
        </mxCell>
        <mxCell id="ry9LyBkneQpmExAJehDU-63" value="&lt;div style=&quot;line-height: 19px; white-space: pre;&quot;&gt;&lt;span style=&quot;background-color: initial;&quot;&gt;Serial.println(&quot;Wifi connected&quot;);&lt;/span&gt;&lt;br&gt;&lt;/div&gt;&lt;div style=&quot;line-height: 19px; white-space: pre;&quot;&gt;Serial.println(IP address);&lt;/div&gt;&lt;div style=&quot;line-height: 19px; white-space: pre;&quot;&gt;Serial.println(IP Mac address);&lt;br&gt;&lt;/div&gt;" style="rounded=0;whiteSpace=wrap;html=1;" vertex="1" parent="1">
          <mxGeometry x="386.5" y="500" width="207.5" height="80" as="geometry" />
        </mxCell>
      </root>
    </mxGraphModel>
  </diagram>
</mxfile>
